<?xml version="1.0" encoding="utf-8"?>
<!-- Generator: Adobe Illustrator 24.1.1, SVG Export Plug-In . SVG Version: 6.00 Build 0)  -->
<svg version="1.1" id="logo" xmlns="http://www.w3.org/2000/svg" xmlns:xlink="http://www.w3.org/1999/xlink" x="0px" y="0px"
	 viewBox="0 0 637.52 341.12" style="enable-background:new 0 0 637.52 341.12;" xml:space="preserve">
<style type="text/css">
	.st0{fill:#4B1E78;}
	.st1{fill-rule:evenodd;clip-rule:evenodd;fill:#7D6099;}
	.st2{fill:#7D6099;}
</style>
<g>
	<g>
		<path class="st0" d="M113.99,185.66c-27.92,0-50.56-22.64-50.56-50.56c0-27.93,22.64-50.56,50.56-50.56
			c27.92,0,50.56,22.64,50.56,50.56C164.55,163.02,141.91,185.66,113.99,185.66 M113.99,78.1c-31.48,0-56.99,25.51-56.99,57
			c0,31.47,25.52,56.99,56.99,56.99c31.48,0,56.99-25.52,56.99-56.99C170.98,103.62,145.47,78.1,113.99,78.1"/>
		<path class="st0" d="M132.89,146.01c-0.79,1.36-2.53,1.83-3.89,1.04l-6.95-4.02v-3.28l2.85-1.64l6.95,4.01
			C133.21,142.91,133.67,144.65,132.89,146.01 M117.26,136.99l-3.27,1.89l-3.27-1.89v-3.78l3.27-1.89l3.27,1.89V136.99z
			 M111.14,116.12c0-1.57,1.27-2.85,2.84-2.85c1.57,0,2.85,1.27,2.85,2.85v8.03l-2.84,1.64l-2.85-1.64V116.12z M105.93,143.04
			l-6.95,4.01c-1.36,0.79-3.1,0.32-3.89-1.04c-0.79-1.36-0.32-3.1,1.04-3.89l6.95-4.01l2.84,1.64V143.04z M155.41,158.05l-8.28-9.66
			c-0.1-0.12-0.22-0.22-0.36-0.3c-0.42-0.24-0.92-0.25-1.33-0.05c-1.26,0.6-2.79,0.59-4.09-0.16c-1.16-0.67-1.9-1.79-2.13-3h0
			c-0.58-3.1-2.46-5.94-5.41-7.63l-3.71-2.14l21.07-12.16l-2.61-4.52l-23.67,13.67l-2.85-1.64v-3.29l23.67-13.67l-2.61-4.52
			l-21.07,12.16v-4.28c0-3.4-1.52-6.45-3.91-8.5c-0.94-0.81-1.54-2-1.54-3.34c0-1.5,0.75-2.84,1.9-3.63
			c0.38-0.26,0.62-0.69,0.62-1.18c0-0.16-0.03-0.32-0.07-0.46l-4.23-12c-0.12-0.35-0.45-0.6-0.84-0.6c-0.39,0-0.72,0.25-0.83,0.6
			l-4.23,12c-0.05,0.15-0.08,0.3-0.08,0.46c0,0.49,0.24,0.92,0.62,1.18h0c1.15,0.79,1.91,2.13,1.91,3.63c0,1.34-0.6,2.54-1.54,3.34
			c-2.39,2.05-3.91,5.1-3.91,8.5v4.28l-21.07-12.16l-2.61,4.52l23.68,13.67v3.29l-2.84,1.64l-23.68-13.67l-2.61,4.52l21.07,12.16
			l-3.71,2.14c-2.95,1.7-4.82,4.53-5.41,7.63h0c-0.23,1.22-0.97,2.34-2.13,3c-1.31,0.75-2.83,0.76-4.1,0.16
			c-0.41-0.2-0.91-0.19-1.33,0.05c-0.14,0.08-0.26,0.18-0.36,0.3l-8.28,9.66c-0.24,0.28-0.3,0.68-0.1,1.03
			c0.19,0.33,0.57,0.49,0.93,0.42l12.5-2.34c0.15-0.03,0.3-0.08,0.44-0.16c0.42-0.25,0.67-0.67,0.71-1.13
			c0.11-1.39,0.89-2.71,2.19-3.46c1.16-0.66,2.49-0.75,3.66-0.34c2.97,1.05,6.37,0.84,9.31-0.87l3.71-2.13v24.33h5.22v-27.34
			l2.85-1.64l2.84,1.64v27.34h5.22v-24.33l3.7,2.13c2.94,1.7,6.34,1.91,9.32,0.87c1.17-0.41,2.51-0.33,3.66,0.34
			c1.3,0.75,2.07,2.07,2.19,3.46c0.03,0.46,0.29,0.88,0.71,1.13c0.14,0.08,0.29,0.14,0.44,0.16l12.5,2.34
			c0.36,0.07,0.74-0.09,0.94-0.42C155.71,158.73,155.65,158.32,155.41,158.05"/>
		<polygon class="st0" points="493.46,123.52 474.44,123.52 474.44,85.49 457.06,85.49 457.06,184.7 474.44,184.7 474.44,141.14 
			493.46,141.14 493.46,184.7 511.21,184.7 511.21,85.49 493.46,85.49 		"/>
		<polygon class="st0" points="226,85.49 212.88,124.14 201,85.49 183.67,85.49 202.95,146.32 202.95,184.7 222.25,184.7 
			222.25,144.35 242.24,85.49 		"/>
		<polygon class="st0" points="342.93,132.68 333.27,85.49 306.15,85.49 306.15,184.7 321.7,184.7 321.7,109.92 334.98,174.93 
			349.5,174.93 361.28,108.86 361.28,184.7 379.52,184.7 379.52,85.49 351.25,85.49 		"/>
		<path class="st0" d="M541.84,145.08l7.39-44.37l7.18,44.37H541.84z M564.16,85.49h-26.87l-18.13,99.21h16.08l3.84-23.09h20
			l3.73,23.09h17.72L564.16,85.49z"/>
		<path class="st0" d="M410.14,145.08l7.39-44.37l7.18,44.37H410.14z M405.59,85.49l-18.14,99.21h16.08l3.85-23.09h20l3.73,23.09
			h17.71l-16.37-99.21H405.59z"/>
		<path class="st0" d="M259.23,145.08l7.39-44.37l7.17,44.37H259.23z M254.67,85.49l-18.14,99.21h16.08l3.85-23.09h20l3.73,23.09
			h17.71l-16.37-99.21H254.67z"/>
	</g>
	<g>
		<path class="st1" d="M527.23,269.42c11.18-0.71,22.15-0.18,35.7-0.29c-11.25-0.99-24.81-0.37-40.63-1.24
			c9.05-0.2,19.76,0.19,25.27,0.4c7.14-0.19,19.92,0.16,30.2,0.32c0.1-0.32-1.94-0.14-2.74-0.25c0.56-0.62,4.65-0.14,5.5-0.66
			c-5.53-0.63-12.19-0.93-18.09-1.39c0.77-0.36,4.66,0.22,5.5-0.12c-7.85-0.85-18.5-0.49-27.47-1.28c-3.12-0.27-5.4-0.86-8.24-1.01
			c-9.64-0.56-19.52,0-30.25-0.13c-13.81-0.02-29.07-0.19-44.56,0.12c1.08-0.41,5.47,0.02,6.6-0.37
			c-12.18-0.25-24.22-0.25-37.96,0.06c-12.02,0.25-23.89,0.49-35.76,0.74c-13.2,0.4-26.19,0.78-40.16,1.2
			c-7.01,0.11-14.33,0.23-21.47,0.35c-37.09,1.32-73.51,2.62-110.13,3.93c-10.48,0.22-21.41,0.48-31.44,1.13
			c-7.49,0.63-16.69,1.41-24.75,2.09c-3.71,0.36-7.95,0.58-13.17,1.54c-7.6,0.83-12.85,2.25-16.92,3.02c0.48,0.16-0.98,0.03,0,0
			c-3.45,0.64-1.76,1.39-5.36,2.11c0.1,0.26,1.86-0.13,2.22,0.04c-1.79,0.45-4.6,1.23-1.55,1.22c-1.64,0.43,0.88,0.66,1.46,0.63
			c5.61-0.3,2.19,1.94,3.74,2.34c21.05,1.08,35.68-2.05,58.93-2.8c13.49-0.61,29.07-1.83,43.96-2.28
			c17.51-0.75,39.06-1.66,57.67-2.45c11.22-0.42,23-0.87,34.05-1.29c9.06-0.47,19.91-0.72,28-0.96c16.88-0.6,34.95-1.96,52.69-2.29
			c12.07-0.18,23.33-0.35,33.5-0.5c-0.09-0.17-1-0.1-1.65-0.11c5.88,0.19,10.51-0.69,19.22-0.43c-4.16,0.58,1.49,0.24,4.4,0.1
			c13.79-0.67,31.89-0.62,43.93-1.48c0.7,0.1,1.5,0.21,2.2,0.31c0.62-0.02,0.31-0.15,0-0.15l-0.55,0c-0.1-0.12,0.21-0.14,0.55-0.14
			C528.8,269.65,527.23,269.42,527.23,269.42"/>
		<g>
			<path class="st2" d="M211.93,250.19c-0.05,4.57,0.18,6.31,0.5,7c-1.05,1.04-3.36,2.59-5.53,2.74c-1.24,0.09-2.61-0.35-3.38-1.19
				c-0.59-1.34-0.38-3.92-0.28-5.34c0.53-7.96,3.33-20.74,4.5-27.08c0.11-0.62-0.73-1.02-1.09-0.61
				c-12.27,13.72-21.34,25.31-23.01,29.22c0,0-3.17,1.68-5.41,2.24c-0.93-0.15-2.25-1.14-3.2-2.14c-0.02-2.54-0.13-3.56-0.24-4.74
				c-0.58-5.84,0.18-17.29-0.47-21.42c-0.07-0.44-0.74-0.59-1.19-0.09c-5.95,10.04-12.71,21.47-17.74,29.43
				c-0.53,0.83-2.35,1.83-3.79,2.29c-1.28-0.14-3.04-3.26-2.44-4.25c4.15-6.78,4.4-6.57,11.15-17.42
				c6.04-9.7,10.17-16.49,11.53-19.54c0.58-1.3,2.61-1.93,4.3-2.31c1.54,0.47,3.19,1.09,4.17,1.74c1.53,6.07,0.09,19.14,1.12,26.07
				c0.13,0.75,0.73,0.85,1.24,0.3c7.32-8.54,18.62-20.49,25.76-28.58c1.63-0.97,4.07-1.51,6.22-1.65c0.99,0.74,2.69,2.32,3,3.77
				C215.34,224.35,212.03,241.55,211.93,250.19"/>
			<path class="st2" d="M278.34,240.8c7.48-4.16,13.2-7.75,17.57-11.74c1.45-0.03,2.36,0.11,3.38,0.34
				c0.61,0.48,1.18,1.82,1.17,2.77c-2.39,2.7-13,7.5-16.97,9.91c-0.37,0.18-0.38,0.44-0.15,0.74c3.6,3.71,8.86,8.27,13.67,9.57
				c0.07,0.66-0.17,1.65-0.46,2.07c-1.48,0.85-4.42,2.4-6.52,2.53c-5.77-5.41-9.5-8.9-13.59-12.53c-0.15-0.13-0.68-0.19-0.84,0.2
				c-2.23,5.61-3.12,9.07-3.49,10.84c-1.47,0.94-3.38,1.88-5.59,2.1c-0.91-0.23-3.49-1.01-3.9-1.74c1.57-2.17,5.41-9.5,11.28-24.44
				c4.8-12.29,6.65-17.65,5.58-19.35c1.59-0.86,5.1-1.9,7.08-2.11c0.82,0.39,1.92,1.36,2.7,2.49c-3.85,8.31-7.06,15.54-11.9,27.5
				C277.23,240.45,277.69,240.98,278.34,240.8"/>
			<path class="st2" d="M322.74,227.08c4.9-0.11,10.61,0.73,11.13,3.68c0.69,4.68-9.19,11.46-21.52,9.6c0,0-2.81,3.74-2.2,8.14
				c0.23,1.53,1.55,2.6,3.99,2.5c9.15-0.36,21.2-6.27,27.76-11.76c0.43,0.44,0.29,0.75-0.4,1.5c-1.25,1.33-3.79,2.88-4.12,4.4
				c-7.34,6.58-19.34,11.35-27.48,11.59c-5.13,0.16-7.35-1.57-7.66-4.69c-0.74-7.39,6.75-18.42,15.55-24.21
				C319.4,227.39,321.07,227.11,322.74,227.08 M313.27,238.49c6.01-0.13,14.38-3,14.04-6.37c-0.16-1.64-4.34-1.96-7.18-1.78
				C318.05,231.95,315.19,235.4,313.27,238.49"/>
			<path class="st2" d="M414.69,236.28c-3.37,4.07-11.08,13.46-11.46,16.35c-1.54,1.35-4.06,2.17-5.56,2.42
				c-1.39-0.55-2.23-1.1-3.2-1.91c-0.89-3.36-2.17-8.94-2.78-15.1c-0.48-4.76-0.82-7.08-1.16-10c-0.03-0.7-0.55-0.94-1.12-0.44
				c-6.44,7.05-17.64,17.65-25.72,26.77c-2.12,1.03-4.61,1.46-6.64,1.62c-1.68-1.2-2.01-3.41-2.27-6.04
				c-0.83-8.3,6.15-24.42,5.62-29.75c-0.05-0.49,0.15-1.14,0.41-1.49c1.03-0.84,3.36-2.05,4.9-2.33c1.31,0.51,2.14,1.35,2.74,2.9
				c0.25,2.55-1.36,7.6-2.96,12.82c-1.6,5.22-3.18,10.6-2.85,13.89c0.04,0.41,0.47,0.56,0.88,0.14c9.89-8.1,20.56-20.01,24.42-25.59
				c1.86-1.1,4.56-2.01,6.9-2.37c0.92,0.31,2.24,1.19,2.86,1.83c0.32,3.2,0.48,9.83,1.3,18.04c0.22,2.22,0.66,4.54,1.14,6.1
				c0.19,0.69,0.77,0.7,1.17,0.27c6.87-8.3,17.25-20.23,23.17-27.54c1.27-0.69,1.6-1.48,3.24-1.76c1.24,0.14,2.22,1.02,2.63,1.75
				C427.84,221.97,418.06,232.21,414.69,236.28"/>
			<path class="st2" d="M471.24,228.43c-0.27,6.26-0.64,9.6-0.3,14.28c0.05,0.66,0.18,1.67,0.41,2.13c0.17,0.41,0.49,0.57,0.8,0.14
				c6.87-7.39,13.1-13.09,21.49-19.52c1.49,0.11,3.79,0.31,4.94,1.01c-11.54,9.04-16.55,15.02-24.08,25.06
				c-1.78,1.19-4.77,2.26-7.11,2.54c-1-1.59-2.46-4.65-2.96-9.58c-0.5-5.01-0.07-9.26-0.15-10.65c-0.05-0.94-3.08,1.84-3.57,1.17
				c-0.29-0.4,0.43-1.82,0.48-2.66c0.69-0.92,5.18-4.83,6.17-5.37c1.46,0.13,2.73,0.52,3.78,0.99L471.24,228.43z"/>
			<path class="st2" d="M554.64,224.81c0.43,0.85,0.51,1.62,0.56,2.13c-0.73,0.87-2.35,2.02-4.5,2.58c-2.11-1.2-4.01-1.93-5.52-1.9
				c-0.92,0.02-2.37,0.31-3.19,0.83c-2.31,1.33-3.37,3.38-3.22,4.92c0.13,1.28,0.88,1.78,6.24,2.01c5.6,0.31,8.72,1.35,9.01,4.26
				c0.61,6.07-10.02,14.22-22.71,14.36c-5.29,0.06-7.21-0.39-7.75-2.06c-0.58-1.79,0.56-4.55,3.32-8.6
				c0.97-0.28,2.87-0.35,4.16,0.03c-0.96,1.69-1.66,3.72-1.43,5.19c0.22,1.4,1.59,1.93,4.48,1.87c6.95-0.15,11.99-4.28,11.57-8.47
				c-0.14-1.45-1.12-1.94-6.59-2.08c-5.48-0.22-7.52-0.95-7.74-3.17c-0.41-4.1,8.8-13.04,15.4-13.18
				C548.93,223.47,553.07,224.24,554.64,224.81"/>
			<path class="st2" d="M449.65,228.29c1.05-0.65,1.21-0.82,2.39-1.26c1.02,0.12,2.04,0.37,3.01,1.09c-3,5.74-6.34,12.7-6.5,17.9
				c-0.04,1.16,0.49,1.62,1.6,1.67c0.74,0.03,1.66-0.07,3.32-1.58c0.1,0.11,0.37,0.56,0.27,0.93c-0.16,0.56,0.04,0.29-0.27,0.66
				c-0.81,0.98-0.06,1.51-0.95,2.45c-3.28,2.56-5.34,3.35-8.04,3.14c-1.1-0.09-2.39-0.89-2.72-2.41c-0.27-1.21-0.43-4.78,0.84-7.69
				c0.17-0.36-0.13-0.74-0.54-0.32c-6.77,7.05-14.11,11.05-19.24,11.18c-1.89,0.05-3.97-1.72-4.13-3.79
				c-0.46-6.16,4.01-14.85,15.06-21.14c3.2-1.69,6.08-2.36,9.43-2.28C445.41,226.9,448.02,227.58,449.65,228.29 M426.88,246.39
				c0.22,1.1,1.59,1.36,2.37,1.35c3.56-0.01,11.56-5.77,17.44-16.1c-0.77-0.97-2.3-2.08-4.72-2.04
				C437.04,229.7,425.52,239.51,426.88,246.39"/>
			<path class="st2" d="M513.32,224.59c4.9-0.11,9.21,0.62,9.73,3.58c0.69,4.68-6.94,13.71-21.85,11.9c0,0-1.81,3.03-0.81,6.39
				c0.54,1.82,1.91,2.62,3.84,2.58c4.45-0.08,9.8-1.19,14.91-4.01c0.58,0.48-0.64,1.1-0.6,1.44c0.04,0.32,0.82,0.32,0.01,0.96
				c-4.48,3.14-13.33,6.65-18.78,6.77c-4.23,0.09-6.62-1.51-6.93-4.62c-0.74-7.39,6.37-18.02,15.16-23.81
				C509.8,225.03,511.65,224.63,513.32,224.59 M502.38,237.89c8.59-0.38,14.12-4.88,13.78-8.25c-0.16-1.64-2.97-2.07-5.82-1.88
				C508.28,229.36,504.3,234.8,502.38,237.89"/>
			<path class="st2" d="M257.85,250.41L257.85,250.41c-1.94,1.31-4.56,2.55-5.71,2.58c-0.8,0.02-1.44-0.65-1.56-1.83
				c-0.53-5.33,4.26-14.93,7.34-20.85c-0.99-0.74-2.05-0.99-3.1-1.12c-1.22,0.46-2.21,1-3.29,1.67c-1.68-0.73-4.03-1.45-5.31-1.49
				c-3.29-0.11-7.22,0.92-10.19,2.52c-12.37,6.66-17.36,17.4-16.74,23.66c0.22,2.2,3.26,2.79,4.65,2.8
				c5.28,0.03,13.36-4.73,19.77-11.6c0.42-0.43,0.97-0.04,0.79,0.33c-1.31,3-1.11,6.66-0.85,8.09c0.47,1.62,1.35,2.52,2.61,2.6
				c4.57,0.26,9.85-3,12.75-5.01l0,0c1.12-0.73,1.05-1.82,1.05-1.82c0.29-0.88,2.61-2.72,2.23-3.6
				C262.29,247.33,258.93,249.71,257.85,250.41 M229.99,252.25c-0.86,0.35-2.11-0.48-2.21-1.41c-0.66-6.48,8.94-18.43,16.8-18.81
				c1.2-0.06,3.76,1.41,4.55,2.41C243.07,245.08,234.34,250.5,229.99,252.25"/>
		</g>
	</g>
</g>
</svg>
